<svg version="1.1" id="Layer_1" xmlns:x="ns_extend;" xmlns:i="ns_ai;" xmlns:graph="ns_graphs;" xmlns="http://www.w3.org/2000/svg" xmlns:xlink="http://www.w3.org/1999/xlink" x="0px" y="0px" viewBox="0 0 26.7 26.7" style="enable-background:new 0 0 26.7 26.7;" xml:space="preserve">
 <style type="text/css">
  .st0{fill:#F16823;}
 </style>
 <metadata>
  <sfw xmlns="ns_sfw;">
   <slices>
   </slices>
   <sliceSourceBounds bottomLeftOrigin="true" height="26.7" width="26.7" x="53.7" y="67.5">
   </sliceSourceBounds>
  </sfw>
 </metadata>
 <g>
  <path class="st0" d="M13.3,26.7C6,26.7,0,20.7,0,13.3C0,6,6,0,13.3,0c7.4,0,13.3,6,13.3,13.3C26.7,20.7,20.7,26.7,13.3,26.7z
		 M21,6.5c-1.8-2-4.2-3.2-6.9-3.3C11.4,3,8.9,3.9,6.9,5.7c-1.8,1.6-2.9,3.7-3.2,6l-1.8-0.1l2.6,4.6l3.3-4.4l-2-0.1
		C6,10,6.9,8.4,8.2,7.2c1.6-1.4,3.6-2.1,5.8-2c2.1,0.1,4.1,1.1,5.5,2.7c1.4,1.6,2.1,3.6,2,5.8c-0.1,2.1-1.1,4.1-2.7,5.5l1.4,1.5
		c2-1.8,3.2-4.2,3.3-6.9C23.7,11.1,22.8,8.5,21,6.5z">
  </path>
 </g>
</svg>