<svg width="138" height="137" viewBox="0 0 138 137" fill="none" xmlns="http://www.w3.org/2000/svg">
<rect x="0.96875" y="0.304688" width="136.13" height="136.13" rx="10" fill="#1467FF"/>
<path d="M98.8894 44.9585L61.5124 23.3887L49.0728 30.5738L47.2729 31.6189V33.7091L47.2148 48.0502L70.3668 61.4188L49.0293 73.7423L47.2148 74.7874V105.618L59.698 112.832L61.5124 113.877L63.3268 112.832L75.81 105.618V91.2769L100.704 76.9067V46.0181L98.8894 44.9585ZM61.5124 27.5836L95.246 47.0632L86.4498 52.1436L52.7161 32.664L61.527 27.5836H61.5124ZM50.8437 45.96L50.8872 35.8138L84.6208 55.2788V57.9932V65.4686L73.9811 59.3286L50.8291 45.96H50.8437ZM73.9956 63.5236L82.8209 68.6184L61.5124 80.942L52.6581 75.8325L73.9956 63.5236ZM59.698 108.637L50.8437 103.528V78.9824L59.698 84.0918V108.637ZM97.075 74.8165L72.1812 89.1867V103.528L63.3268 108.637V84.0918L86.4788 70.7232L88.2642 69.6926H88.2932V67.5733L88.2642 55.2934L97.075 50.1985V74.8165Z" fill="white"/>
</svg>
