<?xml version="1.0" encoding="UTF-8"?>
<svg xmlns="http://www.w3.org/2000/svg" width="880" height="448" viewBox="0 0 880 448" role="img" aria-label="Fetcher and service counts over time. Fetchers rise from 56 to 211, and services from 7 to 18, between June 2026 and October 2026.">
<rect x="0" y="0" width="880" height="448" fill="#1a1a19"/>
<text x="24" y="32" font-family="system-ui,-apple-system,'Segoe UI',Helvetica,Arial,sans-serif" font-size="16" font-weight="600" fill="#ffffff" text-anchor="start">Coverage over time</text>
<line x1="24" y1="56" x2="40" y2="56" stroke="#3987e5" stroke-width="2" stroke-linecap="round"/><circle cx="32" cy="56" r="3.5" fill="#3987e5" stroke="#1a1a19" stroke-width="1.5"/>
<text x="48" y="60" font-family="system-ui,-apple-system,'Segoe UI',Helvetica,Arial,sans-serif" font-size="12" font-weight="400" fill="#c3c2b7" text-anchor="start">Fetchers · fetcher.yaml directories</text>
<line x1="54" y1="206" x2="762" y2="206" stroke="#383835" stroke-width="1"/>
<text x="44" y="210" font-family="system-ui,-apple-system,'Segoe UI',Helvetica,Arial,sans-serif" font-size="11" font-weight="400" fill="#898781" text-anchor="end">0</text>
<line x1="54" y1="162.67" x2="762" y2="162.67" stroke="#2c2c2a" stroke-width="1"/>
<text x="44" y="166.67" font-family="system-ui,-apple-system,'Segoe UI',Helvetica,Arial,sans-serif" font-size="11" font-weight="400" fill="#898781" text-anchor="end">100</text>
<line x1="54" y1="119.33" x2="762" y2="119.33" stroke="#2c2c2a" stroke-width="1"/>
<text x="44" y="123.33" font-family="system-ui,-apple-system,'Segoe UI',Helvetica,Arial,sans-serif" font-size="11" font-weight="400" fill="#898781" text-anchor="end">200</text>
<line x1="54" y1="76" x2="762" y2="76" stroke="#2c2c2a" stroke-width="1"/>
<text x="44" y="80" font-family="system-ui,-apple-system,'Segoe UI',Helvetica,Arial,sans-serif" font-size="11" font-weight="400" fill="#898781" text-anchor="end">300</text>
<text x="54" y="226" font-family="system-ui,-apple-system,'Segoe UI',Helvetica,Arial,sans-serif" font-size="11" font-weight="400" fill="#898781" text-anchor="middle">Jun 2026</text>
<text x="219.94" y="226" font-family="system-ui,-apple-system,'Segoe UI',Helvetica,Arial,sans-serif" font-size="11" font-weight="400" fill="#898781" text-anchor="middle">Jul</text>
<text x="391.41" y="226" font-family="system-ui,-apple-system,'Segoe UI',Helvetica,Arial,sans-serif" font-size="11" font-weight="400" fill="#898781" text-anchor="middle">Aug</text>
<text x="562.88" y="226" font-family="system-ui,-apple-system,'Segoe UI',Helvetica,Arial,sans-serif" font-size="11" font-weight="400" fill="#898781" text-anchor="middle">Sep</text>
<text x="728.81" y="226" font-family="system-ui,-apple-system,'Segoe UI',Helvetica,Arial,sans-serif" font-size="11" font-weight="400" fill="#898781" text-anchor="middle">Oct</text>
<path d="M54,181.73 L70.59,181.73 L70.59,180.87 L142.5,180.87 L142.5,159.63 L264.19,159.63 L264.19,159.2 L302.91,159.2 L302.91,153.57 L408,153.57 L408,152.27 L463.31,152.27 L463.31,140.57 L479.91,140.57 L479.91,132.33 L485.44,132.33 L485.44,131.9 L562.88,131.9 L562.88,128.87 L579.47,128.87 L579.47,128 L607.12,128 L607.12,127.57 L695.62,127.57 L695.62,127.13 L712.22,127.13 L712.22,124.1 L717.75,124.1 L717.75,121.07 L750.94,121.07 L750.94,115 L762,115 L762,114.57 L762,114.57 L762,206 L54,206 Z" fill="#3987e5" fill-opacity="0.10" stroke="none"/>
<path d="M54,181.73 L70.59,181.73 L70.59,180.87 L142.5,180.87 L142.5,159.63 L264.19,159.63 L264.19,159.2 L302.91,159.2 L302.91,153.57 L408,153.57 L408,152.27 L463.31,152.27 L463.31,140.57 L479.91,140.57 L479.91,132.33 L485.44,132.33 L485.44,131.9 L562.88,131.9 L562.88,128.87 L579.47,128.87 L579.47,128 L607.12,128 L607.12,127.57 L695.62,127.57 L695.62,127.13 L712.22,127.13 L712.22,124.1 L717.75,124.1 L717.75,121.07 L750.94,121.07 L750.94,115 L762,115 L762,114.57 L762,114.57" fill="none" stroke="#3987e5" stroke-width="2" stroke-linejoin="round" stroke-linecap="round"/>
<circle cx="762" cy="114.57" r="4.5" fill="#3987e5" stroke="#1a1a19" stroke-width="2"/>
<text x="773" y="116.57" font-family="system-ui,-apple-system,'Segoe UI',Helvetica,Arial,sans-serif" font-size="17" font-weight="600" fill="#ffffff" text-anchor="start">211</text>
<text x="773" y="132.57" font-family="system-ui,-apple-system,'Segoe UI',Helvetica,Arial,sans-serif" font-size="11" font-weight="400" fill="#898781" text-anchor="start">fetchers</text>
<line x1="24" y1="258" x2="40" y2="258" stroke="#d95926" stroke-width="2" stroke-linecap="round"/><circle cx="32" cy="258" r="3.5" fill="#d95926" stroke="#1a1a19" stroke-width="1.5"/>
<text x="48" y="262" font-family="system-ui,-apple-system,'Segoe UI',Helvetica,Arial,sans-serif" font-size="12" font-weight="400" fill="#c3c2b7" text-anchor="start">Services · top-level categories</text>
<line x1="54" y1="408" x2="762" y2="408" stroke="#383835" stroke-width="1"/>
<text x="44" y="412" font-family="system-ui,-apple-system,'Segoe UI',Helvetica,Arial,sans-serif" font-size="11" font-weight="400" fill="#898781" text-anchor="end">0</text>
<line x1="54" y1="375.5" x2="762" y2="375.5" stroke="#2c2c2a" stroke-width="1"/>
<text x="44" y="379.5" font-family="system-ui,-apple-system,'Segoe UI',Helvetica,Arial,sans-serif" font-size="11" font-weight="400" fill="#898781" text-anchor="end">5</text>
<line x1="54" y1="343" x2="762" y2="343" stroke="#2c2c2a" stroke-width="1"/>
<text x="44" y="347" font-family="system-ui,-apple-system,'Segoe UI',Helvetica,Arial,sans-serif" font-size="11" font-weight="400" fill="#898781" text-anchor="end">10</text>
<line x1="54" y1="310.5" x2="762" y2="310.5" stroke="#2c2c2a" stroke-width="1"/>
<text x="44" y="314.5" font-family="system-ui,-apple-system,'Segoe UI',Helvetica,Arial,sans-serif" font-size="11" font-weight="400" fill="#898781" text-anchor="end">15</text>
<line x1="54" y1="278" x2="762" y2="278" stroke="#2c2c2a" stroke-width="1"/>
<text x="44" y="282" font-family="system-ui,-apple-system,'Segoe UI',Helvetica,Arial,sans-serif" font-size="11" font-weight="400" fill="#898781" text-anchor="end">20</text>
<text x="54" y="428" font-family="system-ui,-apple-system,'Segoe UI',Helvetica,Arial,sans-serif" font-size="11" font-weight="400" fill="#898781" text-anchor="middle">Jun 2026</text>
<text x="219.94" y="428" font-family="system-ui,-apple-system,'Segoe UI',Helvetica,Arial,sans-serif" font-size="11" font-weight="400" fill="#898781" text-anchor="middle">Jul</text>
<text x="391.41" y="428" font-family="system-ui,-apple-system,'Segoe UI',Helvetica,Arial,sans-serif" font-size="11" font-weight="400" fill="#898781" text-anchor="middle">Aug</text>
<text x="562.88" y="428" font-family="system-ui,-apple-system,'Segoe UI',Helvetica,Arial,sans-serif" font-size="11" font-weight="400" fill="#898781" text-anchor="middle">Sep</text>
<text x="728.81" y="428" font-family="system-ui,-apple-system,'Segoe UI',Helvetica,Arial,sans-serif" font-size="11" font-weight="400" fill="#898781" text-anchor="middle">Oct</text>
<path d="M54,362.5 L70.59,362.5 L70.59,356 L302.91,356 L302.91,349.5 L408,349.5 L408,343 L463.31,343 L463.31,336.5 L479.91,336.5 L479.91,330 L562.88,330 L562.88,323.5 L579.47,323.5 L579.47,317 L695.62,317 L695.62,310.5 L717.75,310.5 L717.75,304 L750.94,304 L750.94,297.5 L762,297.5 L762,291 L762,291 L762,408 L54,408 Z" fill="#d95926" fill-opacity="0.10" stroke="none"/>
<path d="M54,362.5 L70.59,362.5 L70.59,356 L302.91,356 L302.91,349.5 L408,349.5 L408,343 L463.31,343 L463.31,336.5 L479.91,336.5 L479.91,330 L562.88,330 L562.88,323.5 L579.47,323.5 L579.47,317 L695.62,317 L695.62,310.5 L717.75,310.5 L717.75,304 L750.94,304 L750.94,297.5 L762,297.5 L762,291 L762,291" fill="none" stroke="#d95926" stroke-width="2" stroke-linejoin="round" stroke-linecap="round"/>
<circle cx="762" cy="291" r="4.5" fill="#d95926" stroke="#1a1a19" stroke-width="2"/>
<text x="773" y="293" font-family="system-ui,-apple-system,'Segoe UI',Helvetica,Arial,sans-serif" font-size="17" font-weight="600" fill="#ffffff" text-anchor="start">18</text>
<text x="773" y="309" font-family="system-ui,-apple-system,'Segoe UI',Helvetica,Arial,sans-serif" font-size="11" font-weight="400" fill="#898781" text-anchor="start">services</text>
</svg>
