<?xml version="1.0" encoding="UTF-8"?>
<svg xmlns="http://www.w3.org/2000/svg" width="880" height="448" viewBox="0 0 880 448" role="img" aria-label="Fetcher and service counts over time. Fetchers rise from 56 to 230, and services from 7 to 18, between June 2026 and October 2026.">
<rect x="0" y="0" width="880" height="448" fill="#fcfcfb"/>
<text x="24" y="32" font-family="system-ui,-apple-system,'Segoe UI',Helvetica,Arial,sans-serif" font-size="16" font-weight="600" fill="#0b0b0b" text-anchor="start">Coverage over time</text>
<line x1="24" y1="56" x2="40" y2="56" stroke="#2a78d6" stroke-width="2" stroke-linecap="round"/><circle cx="32" cy="56" r="3.5" fill="#2a78d6" stroke="#fcfcfb" stroke-width="1.5"/>
<text x="48" y="60" font-family="system-ui,-apple-system,'Segoe UI',Helvetica,Arial,sans-serif" font-size="12" font-weight="400" fill="#52514e" text-anchor="start">Fetchers · fetcher.yaml directories</text>
<line x1="54" y1="206" x2="762" y2="206" stroke="#c3c2b7" stroke-width="1"/>
<text x="44" y="210" font-family="system-ui,-apple-system,'Segoe UI',Helvetica,Arial,sans-serif" font-size="11" font-weight="400" fill="#898781" text-anchor="end">0</text>
<line x1="54" y1="162.67" x2="762" y2="162.67" stroke="#e1e0d9" stroke-width="1"/>
<text x="44" y="166.67" font-family="system-ui,-apple-system,'Segoe UI',Helvetica,Arial,sans-serif" font-size="11" font-weight="400" fill="#898781" text-anchor="end">100</text>
<line x1="54" y1="119.33" x2="762" y2="119.33" stroke="#e1e0d9" stroke-width="1"/>
<text x="44" y="123.33" font-family="system-ui,-apple-system,'Segoe UI',Helvetica,Arial,sans-serif" font-size="11" font-weight="400" fill="#898781" text-anchor="end">200</text>
<line x1="54" y1="76" x2="762" y2="76" stroke="#e1e0d9" stroke-width="1"/>
<text x="44" y="80" font-family="system-ui,-apple-system,'Segoe UI',Helvetica,Arial,sans-serif" font-size="11" font-weight="400" fill="#898781" text-anchor="end">300</text>
<text x="54" y="226" font-family="system-ui,-apple-system,'Segoe UI',Helvetica,Arial,sans-serif" font-size="11" font-weight="400" fill="#898781" text-anchor="middle">Jun 2026</text>
<text x="217.38" y="226" font-family="system-ui,-apple-system,'Segoe UI',Helvetica,Arial,sans-serif" font-size="11" font-weight="400" fill="#898781" text-anchor="middle">Jul</text>
<text x="386.22" y="226" font-family="system-ui,-apple-system,'Segoe UI',Helvetica,Arial,sans-serif" font-size="11" font-weight="400" fill="#898781" text-anchor="middle">Aug</text>
<text x="555.05" y="226" font-family="system-ui,-apple-system,'Segoe UI',Helvetica,Arial,sans-serif" font-size="11" font-weight="400" fill="#898781" text-anchor="middle">Sep</text>
<text x="718.43" y="226" font-family="system-ui,-apple-system,'Segoe UI',Helvetica,Arial,sans-serif" font-size="11" font-weight="400" fill="#898781" text-anchor="middle">Oct</text>
<path d="M54,181.73 L70.34,181.73 L70.34,180.87 L141.14,180.87 L141.14,159.63 L260.95,159.63 L260.95,159.2 L299.08,159.2 L299.08,153.57 L402.55,153.57 L402.55,152.27 L457.02,152.27 L457.02,140.57 L473.35,140.57 L473.35,132.33 L478.8,132.33 L478.8,131.9 L555.05,131.9 L555.05,128.87 L571.38,128.87 L571.38,128 L598.62,128 L598.62,127.57 L685.75,127.57 L685.75,127.13 L702.09,127.13 L702.09,124.1 L707.54,124.1 L707.54,121.07 L740.22,121.07 L740.22,115 L751.11,115 L751.11,114.57 L756.55,114.57 L756.55,112.83 L762,112.83 L762,106.33 L762,106.33 L762,206 L54,206 Z" fill="#2a78d6" fill-opacity="0.10" stroke="none"/>
<path d="M54,181.73 L70.34,181.73 L70.34,180.87 L141.14,180.87 L141.14,159.63 L260.95,159.63 L260.95,159.2 L299.08,159.2 L299.08,153.57 L402.55,153.57 L402.55,152.27 L457.02,152.27 L457.02,140.57 L473.35,140.57 L473.35,132.33 L478.8,132.33 L478.8,131.9 L555.05,131.9 L555.05,128.87 L571.38,128.87 L571.38,128 L598.62,128 L598.62,127.57 L685.75,127.57 L685.75,127.13 L702.09,127.13 L702.09,124.1 L707.54,124.1 L707.54,121.07 L740.22,121.07 L740.22,115 L751.11,115 L751.11,114.57 L756.55,114.57 L756.55,112.83 L762,112.83 L762,106.33 L762,106.33" fill="none" stroke="#2a78d6" stroke-width="2" stroke-linejoin="round" stroke-linecap="round"/>
<circle cx="762" cy="106.33" r="4.5" fill="#2a78d6" stroke="#fcfcfb" stroke-width="2"/>
<text x="773" y="108.33" font-family="system-ui,-apple-system,'Segoe UI',Helvetica,Arial,sans-serif" font-size="17" font-weight="600" fill="#0b0b0b" text-anchor="start">230</text>
<text x="773" y="124.33" font-family="system-ui,-apple-system,'Segoe UI',Helvetica,Arial,sans-serif" font-size="11" font-weight="400" fill="#898781" text-anchor="start">fetchers</text>
<line x1="24" y1="258" x2="40" y2="258" stroke="#eb6834" stroke-width="2" stroke-linecap="round"/><circle cx="32" cy="258" r="3.5" fill="#eb6834" stroke="#fcfcfb" stroke-width="1.5"/>
<text x="48" y="262" font-family="system-ui,-apple-system,'Segoe UI',Helvetica,Arial,sans-serif" font-size="12" font-weight="400" fill="#52514e" text-anchor="start">Services · top-level categories</text>
<line x1="54" y1="408" x2="762" y2="408" stroke="#c3c2b7" stroke-width="1"/>
<text x="44" y="412" font-family="system-ui,-apple-system,'Segoe UI',Helvetica,Arial,sans-serif" font-size="11" font-weight="400" fill="#898781" text-anchor="end">0</text>
<line x1="54" y1="375.5" x2="762" y2="375.5" stroke="#e1e0d9" stroke-width="1"/>
<text x="44" y="379.5" font-family="system-ui,-apple-system,'Segoe UI',Helvetica,Arial,sans-serif" font-size="11" font-weight="400" fill="#898781" text-anchor="end">5</text>
<line x1="54" y1="343" x2="762" y2="343" stroke="#e1e0d9" stroke-width="1"/>
<text x="44" y="347" font-family="system-ui,-apple-system,'Segoe UI',Helvetica,Arial,sans-serif" font-size="11" font-weight="400" fill="#898781" text-anchor="end">10</text>
<line x1="54" y1="310.5" x2="762" y2="310.5" stroke="#e1e0d9" stroke-width="1"/>
<text x="44" y="314.5" font-family="system-ui,-apple-system,'Segoe UI',Helvetica,Arial,sans-serif" font-size="11" font-weight="400" fill="#898781" text-anchor="end">15</text>
<line x1="54" y1="278" x2="762" y2="278" stroke="#e1e0d9" stroke-width="1"/>
<text x="44" y="282" font-family="system-ui,-apple-system,'Segoe UI',Helvetica,Arial,sans-serif" font-size="11" font-weight="400" fill="#898781" text-anchor="end">20</text>
<text x="54" y="428" font-family="system-ui,-apple-system,'Segoe UI',Helvetica,Arial,sans-serif" font-size="11" font-weight="400" fill="#898781" text-anchor="middle">Jun 2026</text>
<text x="217.38" y="428" font-family="system-ui,-apple-system,'Segoe UI',Helvetica,Arial,sans-serif" font-size="11" font-weight="400" fill="#898781" text-anchor="middle">Jul</text>
<text x="386.22" y="428" font-family="system-ui,-apple-system,'Segoe UI',Helvetica,Arial,sans-serif" font-size="11" font-weight="400" fill="#898781" text-anchor="middle">Aug</text>
<text x="555.05" y="428" font-family="system-ui,-apple-system,'Segoe UI',Helvetica,Arial,sans-serif" font-size="11" font-weight="400" fill="#898781" text-anchor="middle">Sep</text>
<text x="718.43" y="428" font-family="system-ui,-apple-system,'Segoe UI',Helvetica,Arial,sans-serif" font-size="11" font-weight="400" fill="#898781" text-anchor="middle">Oct</text>
<path d="M54,362.5 L70.34,362.5 L70.34,356 L299.08,356 L299.08,349.5 L402.55,349.5 L402.55,343 L457.02,343 L457.02,336.5 L473.35,336.5 L473.35,330 L555.05,330 L555.05,323.5 L571.38,323.5 L571.38,317 L685.75,317 L685.75,310.5 L707.54,310.5 L707.54,304 L740.22,304 L740.22,297.5 L751.11,297.5 L751.11,291 L762,291 L762,408 L54,408 Z" fill="#eb6834" fill-opacity="0.10" stroke="none"/>
<path d="M54,362.5 L70.34,362.5 L70.34,356 L299.08,356 L299.08,349.5 L402.55,349.5 L402.55,343 L457.02,343 L457.02,336.5 L473.35,336.5 L473.35,330 L555.05,330 L555.05,323.5 L571.38,323.5 L571.38,317 L685.75,317 L685.75,310.5 L707.54,310.5 L707.54,304 L740.22,304 L740.22,297.5 L751.11,297.5 L751.11,291 L762,291" fill="none" stroke="#eb6834" stroke-width="2" stroke-linejoin="round" stroke-linecap="round"/>
<circle cx="762" cy="291" r="4.5" fill="#eb6834" stroke="#fcfcfb" stroke-width="2"/>
<text x="773" y="293" font-family="system-ui,-apple-system,'Segoe UI',Helvetica,Arial,sans-serif" font-size="17" font-weight="600" fill="#0b0b0b" text-anchor="start">18</text>
<text x="773" y="309" font-family="system-ui,-apple-system,'Segoe UI',Helvetica,Arial,sans-serif" font-size="11" font-weight="400" fill="#898781" text-anchor="start">services</text>
</svg>
